<mxfile host="app.diagrams.net" modified="2023-07-29T09:01:07.206Z" agent="Mozilla/5.0 (X11; Linux x86_64; rv:109.0) Gecko/20100101 Firefox/113.0" etag="H7OQeVEXcn1ZU6KtYv_Z" version="21.6.6" type="github">
  <diagram name="Page-1" id="9f46799a-70d6-7492-0946-bef42562c5a5">
    <mxGraphModel dx="768" dy="383" grid="1" gridSize="10" guides="1" tooltips="1" connect="1" arrows="1" fold="1" page="1" pageScale="1" pageWidth="1100" pageHeight="850" background="none" math="0" shadow="0">
      <root>
        <mxCell id="0" />
        <mxCell id="1" parent="0" />
        <mxCell id="fTah8kRHoHt24xOx3StS-2" value="" style="sketch=0;outlineConnect=0;dashed=0;verticalLabelPosition=bottom;verticalAlign=top;align=center;html=1;fontSize=12;fontStyle=0;aspect=fixed;pointerEvents=1;shape=mxgraph.aws4.customer_gateway;fillColor=#dae8fc;strokeColor=#6c8ebf;gradientColor=#7ea6e0;" vertex="1" parent="1">
          <mxGeometry x="539.01" y="60" width="40" height="40" as="geometry" />
        </mxCell>
        <mxCell id="fTah8kRHoHt24xOx3StS-3" value="Internet" style="ellipse;shape=cloud;whiteSpace=wrap;html=1;" vertex="1" parent="1">
          <mxGeometry x="529.01" y="10" width="60" height="40" as="geometry" />
        </mxCell>
        <mxCell id="fTah8kRHoHt24xOx3StS-7" value="&lt;div&gt;Type 1 Hypervisor&lt;/div&gt;&lt;div&gt;OS: CoreOS&lt;br&gt;&lt;/div&gt;" style="rounded=0;whiteSpace=wrap;html=1;container=1;gradientColor=none;labelPosition=center;verticalLabelPosition=middle;align=center;verticalAlign=top;" vertex="1" parent="1">
          <mxGeometry x="320" y="160" width="480" height="230" as="geometry">
            <mxRectangle x="320" y="160" width="480" height="40" as="alternateBounds" />
          </mxGeometry>
        </mxCell>
        <mxCell id="fTah8kRHoHt24xOx3StS-8" value="" style="rounded=0;whiteSpace=wrap;html=1;" vertex="1" parent="1">
          <mxGeometry x="330" y="200" width="460" height="40" as="geometry" />
        </mxCell>
      </root>
    </mxGraphModel>
  </diagram>
</mxfile>
